<svg width="256" height="256" viewBox="0 0 256 256" fill="none" xmlns="http://www.w3.org/2000/svg">
<path d="M79.7419 67.0901L22.4516 64.2519C22.1075 64.2519 21.3333 64.7679 20.129 65.8C18.9247 66.8321 17.8925 67.3481 17.0323 67.3481C16.172 67.3481 15.5699 67.2621 15.2258 67.0901C5.07527 63.4778 0 59.0914 0 53.9309C0 51.3506 1.46237 50.0605 4.3871 50.0605C6.10753 50.0605 17.2043 51.4366 37.6774 54.1889C58.3226 56.7691 80.5161 58.0593 104.258 58.0593C128 58.0593 150.796 56.7691 172.645 54.1889C195.871 34.063 218.925 24 241.806 24C251.269 24 256 26.2362 256 30.7086C256 42.4058 229.505 52.1247 176.516 59.8654C158.968 77.4111 137.72 106.052 112.774 145.788C103.484 160.409 94.2796 174.514 85.1613 188.104C65.0323 218.035 48.6021 233 35.871 233C31.2258 233 28.9032 230.936 28.9032 226.807C28.9032 222.851 30.6237 218.207 34.0645 212.874C37.3333 207.714 39.914 205.133 41.8065 205.133C41.9785 205.133 42.0645 205.133 42.0645 205.133C44.3011 205.133 45.4194 206.423 45.4194 209.004L44.3871 213.906C44.3871 214.766 44.7312 215.196 45.4194 215.196C54.5376 215.196 70.0215 196.619 91.871 159.463C100.645 144.498 111.828 127.468 125.419 108.374C139.011 89.2802 152.172 73.6267 164.903 61.4136C135.14 65.1979 106.753 67.0901 79.7419 67.0901ZM235.613 28.9025C219.097 28.9025 201.978 36.8152 184.258 52.6407C196.989 50.7486 207.914 48.4263 217.032 45.6741C226.323 42.9218 232.86 40.3416 236.645 37.9333C240.43 35.5251 242.323 33.4609 242.323 31.7407C242.323 29.8486 240.086 28.9025 235.613 28.9025Z" fill="#00D492"/>
</svg>
