<svg width="60" height="18" viewBox="0 0 60 18" fill="none" xmlns="http://www.w3.org/2000/svg">
    <g>
        <path d="M6.8667 3.71111L1.93336 3.46667C1.90373 3.46667 1.83707 3.51111 1.73336 3.6C1.62966 3.68889 1.54077 3.73333 1.46669 3.73333C1.39262 3.73333 1.34077 3.72593 1.31114 3.71111C0.437065 3.4 2.8257e-05 3.02222 2.8257e-05 2.57778C2.8257e-05 2.35556 0.125954 2.24444 0.377806 2.24444C0.525954 2.24444 1.48151 2.36296 3.24447 2.6C5.02225 2.82222 6.93336 2.93333 8.97781 2.93333C11.0223 2.93333 12.9852 2.82222 14.8667 2.6C16.8667 0.866667 18.8519 0 20.8223 0C21.6371 0 22.0445 0.192593 22.0445 0.577778C22.0445 1.58519 19.763 2.42222 15.2 3.08889C13.6889 4.6 11.8593 7.06667 9.71114 10.4889C8.91114 11.7481 8.11855 12.963 7.33336 14.1333C5.60003 16.7111 4.18521 18 3.08892 18C2.68892 18 2.48892 17.8222 2.48892 17.4667C2.48892 17.1259 2.63707 16.7259 2.93336 16.2667C3.21484 15.8222 3.43707 15.6 3.60003 15.6C3.61484 15.6 3.62225 15.6 3.62225 15.6C3.81484 15.6 3.91114 15.7111 3.91114 15.9333L3.82225 16.3556C3.82225 16.4296 3.85188 16.4667 3.91114 16.4667C4.69632 16.4667 6.02966 14.8667 7.91114 11.6667C8.6667 10.3778 9.62966 8.91111 10.8 7.26667C11.9704 5.62222 13.1037 4.27407 14.2 3.22222C11.6371 3.54815 9.19262 3.71111 6.8667 3.71111ZM20.2889 0.422222C18.8667 0.422222 17.3926 1.1037 15.8667 2.46667C16.963 2.3037 17.9037 2.1037 18.6889 1.86667C19.4889 1.62963 20.0519 1.40741 20.3778 1.2C20.7037 0.992593 20.8667 0.814815 20.8667 0.666667C20.8667 0.503704 20.6741 0.422222 20.2889 0.422222Z" fill="var(--ui-primary)"/>
        <path d="M12.7608 14.2444C12.6719 14.2444 12.6275 14.2148 12.6275 14.1556C12.6275 14.0815 12.6793 14 12.783 13.9111C13.2719 13.5111 13.5163 13.1481 13.5163 12.8222C13.5163 12.6148 13.3312 12.4963 12.9608 12.4667C12.2941 12.4815 11.4941 12.963 10.5608 13.9111C9.64227 14.8593 9.18301 15.5704 9.18301 16.0444C9.18301 16.2074 9.2719 16.2889 9.44968 16.2889C9.64227 16.2889 9.89412 16.163 10.2052 15.9111C10.4867 15.7333 11.0126 15.2889 11.783 14.5778C11.9608 14.4 12.1312 14.3111 12.2941 14.3111C12.5015 14.3111 12.6052 14.4074 12.6052 14.6C12.6052 14.6741 12.583 14.7333 12.5386 14.7778C12.4941 14.8222 12.4126 14.9185 12.2941 15.0667C12.1756 15.2 12.0719 15.3259 11.983 15.4444C11.7163 15.8296 11.583 16.0815 11.583 16.2C11.583 16.4963 11.7015 16.6444 11.9386 16.6444C12.2497 16.6444 12.8349 16.363 13.6941 15.8C14.5534 15.2222 15.3386 14.6444 16.0497 14.0667L17.1163 13.2222C17.22 13.1481 17.3163 13.1111 17.4052 13.1111C17.4941 13.1111 17.5386 13.163 17.5386 13.2667V13.3111C16.3978 14.2741 15.1904 15.1778 13.9163 16.0222C12.6571 16.8667 11.8275 17.2889 11.4275 17.2889C10.9534 17.2889 10.7163 17.037 10.7163 16.5333C10.7163 16.4148 10.7386 16.3037 10.783 16.2C10.8275 16.0963 10.8497 16.0222 10.8497 15.9778C10.8497 15.9333 10.8349 15.9037 10.8052 15.8889C10.7608 15.8889 10.4719 16.0889 9.93857 16.4889C9.42005 16.8889 8.96079 17.0889 8.56079 17.0889C8.1756 17.0889 7.98301 16.8815 7.98301 16.4667C7.98301 16.0519 8.25709 15.4963 8.80523 14.8C9.3682 14.0889 10.1163 13.4444 11.0497 12.8667C11.983 12.2889 12.8941 12 13.783 12C13.9904 12 14.1608 12.0519 14.2941 12.1556C14.4423 12.2593 14.5163 12.4222 14.5163 12.6444C14.5163 12.8519 14.3015 13.1704 13.8719 13.6C13.4423 14.0296 13.0719 14.2444 12.7608 14.2444Z" fill="var(--ui-primary)"/>
        <path d="M29.112 7.48889L25.9342 7.33333C24.6305 7.33333 23.3342 7.38519 22.0453 7.48889L22.1565 7.93333C22.1565 8.0963 21.675 8.71852 20.712 9.8C19.749 10.8667 18.7861 12.037 17.8231 13.3111C16.8602 14.5704 16.3787 15.5037 16.3787 16.1111C16.3787 16.3481 16.4602 16.4667 16.6231 16.4667C16.8009 16.4667 17.1935 16.2593 17.8009 15.8444C18.9268 15.1037 19.9564 14.3556 20.8898 13.6L21.3787 13.2C21.4824 13.1259 21.5713 13.0889 21.6453 13.0889C21.7194 13.0889 21.7565 13.1333 21.7565 13.2222V13.2889C21.8157 13.2889 21.4157 13.6148 20.5564 14.2667C19.712 14.9185 18.8009 15.5704 17.8231 16.2222C16.8602 16.8741 16.2527 17.2 16.0009 17.2C15.5713 17.2 15.3565 17.0074 15.3565 16.6222C15.3565 16.0593 15.6676 15.2815 16.2898 14.2889C16.9268 13.2963 17.6157 12.363 18.3565 11.4889C19.112 10.6 19.8231 9.76296 20.4898 8.97778C21.1713 8.19259 21.5416 7.71111 21.6009 7.53333C19.9713 7.68148 18.7194 7.85926 17.8453 8.06667L17.4009 8.15556C17.2824 8.17037 17.2231 8.28148 17.2231 8.48889C17.2231 8.57778 17.1194 8.62222 16.912 8.62222C16.7046 8.62222 16.4453 8.57778 16.1342 8.48889C15.8379 8.38519 15.6898 8.24444 15.6898 8.06667C15.6898 7.88889 15.8379 7.77037 16.1342 7.71111C18.3268 7.32593 19.8824 7.0963 20.8009 7.02222C21.7194 6.93333 22.3268 6.88148 22.6231 6.86667C22.9342 6.83704 23.4083 6.81482 24.0453 6.8C24.6972 6.78519 25.1342 6.77778 25.3564 6.77778C26.0231 6.74815 26.8009 6.73333 27.6898 6.73333C28.5935 6.73333 29.1416 6.77037 29.3342 6.84444C29.5268 6.91852 29.6231 7.05926 29.6231 7.26667C29.6231 7.41482 29.4528 7.48889 29.112 7.48889Z" fill="var(--ui-primary)"/>
        <path d="M23.6332 14.2444C23.5443 14.2444 23.4999 14.2148 23.4999 14.1556C23.4999 14.0815 23.5517 14 23.6554 13.9111C24.1443 13.5111 24.3887 13.1481 24.3887 12.8222C24.3887 12.6148 24.2036 12.4963 23.8332 12.4667C23.1665 12.4815 22.3665 12.963 21.4332 13.9111C20.5147 14.8593 20.0554 15.5704 20.0554 16.0444C20.0554 16.2074 20.1443 16.2889 20.3221 16.2889C20.5147 16.2889 20.7665 16.163 21.0776 15.9111C21.3591 15.7333 21.885 15.2889 22.6554 14.5778C22.8332 14.4 23.0036 14.3111 23.1665 14.3111C23.3739 14.3111 23.4776 14.4074 23.4776 14.6C23.4776 14.6741 23.4554 14.7333 23.411 14.7778C23.3665 14.8222 23.285 14.9185 23.1665 15.0667C23.048 15.2 22.9443 15.3259 22.8554 15.4444C22.5887 15.8296 22.4554 16.0815 22.4554 16.2C22.4554 16.4963 22.5739 16.6444 22.811 16.6444C23.1221 16.6444 23.7073 16.363 24.5665 15.8C25.4258 15.2222 26.211 14.6444 26.9221 14.0667L27.9887 13.2222C28.0924 13.1481 28.1887 13.1111 28.2776 13.1111C28.3665 13.1111 28.411 13.163 28.411 13.2667V13.3111C27.2702 14.2741 26.0628 15.1778 24.7887 16.0222C23.5295 16.8667 22.6999 17.2889 22.2999 17.2889C21.8258 17.2889 21.5887 17.037 21.5887 16.5333C21.5887 16.4148 21.611 16.3037 21.6554 16.2C21.6999 16.0963 21.7221 16.0222 21.7221 15.9778C21.7221 15.9333 21.7073 15.9037 21.6776 15.8889C21.6332 15.8889 21.3443 16.0889 20.811 16.4889C20.2924 16.8889 19.8332 17.0889 19.4332 17.0889C19.048 17.0889 18.8554 16.8815 18.8554 16.4667C18.8554 16.0519 19.1295 15.4963 19.6776 14.8C20.2406 14.0889 20.9887 13.4444 21.9221 12.8667C22.8554 12.2889 23.7665 12 24.6554 12C24.8628 12 25.0332 12.0519 25.1665 12.1556C25.3147 12.2593 25.3887 12.4222 25.3887 12.6444C25.3887 12.8519 25.1739 13.1704 24.7443 13.6C24.3147 14.0296 23.9443 14.2444 23.6332 14.2444Z" fill="var(--ui-primary)"/>
        <path d="M32.9177 13.2222C33.0214 13.1481 33.1177 13.1111 33.2066 13.1111C33.2955 13.1111 33.34 13.163 33.34 13.2667V13.3111C32.2288 14.2 31.1325 15.037 30.0511 15.8222C28.9696 16.5926 28.177 16.9778 27.6733 16.9778C27.3029 16.9778 27.1177 16.7778 27.1177 16.3778C27.1177 15.9778 27.2955 15.5778 27.6511 15.1778C28.0066 14.7778 28.3548 14.4296 28.6955 14.1333C29.0511 13.837 29.2288 13.6444 29.2288 13.5556C29.2288 13.4519 29.1696 13.3407 29.0511 13.2222C28.9474 13.0889 28.8585 13 28.7844 12.9556C28.5326 13.2074 27.9844 13.6667 27.14 14.3333L27.0511 14C27.9844 13.2593 28.5251 12.763 28.6733 12.5111V12.3111C28.6733 11.9407 28.7103 11.6889 28.7844 11.5556C28.8585 11.4222 29.0363 11.237 29.3177 11C29.5992 10.763 29.7918 10.6444 29.8955 10.6444C29.9992 10.6444 30.0881 10.6815 30.1622 10.7556C30.2511 10.8296 30.2955 10.9037 30.2955 10.9778C30.2955 11.0519 30.2659 11.1407 30.2066 11.2444C30.1622 11.3333 30.1103 11.4148 30.0511 11.4889C30.0066 11.5481 29.94 11.6296 29.8511 11.7333C29.7622 11.8222 29.7029 11.8889 29.6733 11.9333C29.6585 11.963 29.6363 12.0222 29.6066 12.1111C29.5918 12.2 29.5474 12.2741 29.4733 12.3333C29.3992 12.3926 29.3622 12.4667 29.3622 12.5556C29.3622 12.6444 29.4214 12.8444 29.54 13.1556C29.6585 13.4519 29.7177 13.6741 29.7177 13.8222C29.7177 13.9556 29.4437 14.2889 28.8955 14.8222C28.3474 15.3407 28.0733 15.763 28.0733 16.0889C28.0733 16.2667 28.1548 16.3556 28.3177 16.3556C28.5251 16.3556 28.9103 16.1704 29.4733 15.8L29.74 15.6222C30.7029 14.9556 31.6066 14.2815 32.4511 13.6L32.9177 13.2222Z" fill="var(--ui-primary)"/>
        <path d="M38.6222 13.2222C38.726 13.1481 38.8223 13.1111 38.9111 13.1111C39 13.1111 39.0445 13.163 39.0445 13.2667V13.3111C37.5037 14.5852 36.2222 15.5407 35.2 16.1778C34.1778 16.8148 33.2519 17.1333 32.4222 17.1333C31.7556 17.1333 31.4222 16.8074 31.4222 16.1556C31.4222 15.1926 31.9111 14.2074 32.8889 13.2C33.8667 12.1778 34.6889 11.6667 35.3556 11.6667C35.726 11.6667 35.9111 11.8741 35.9111 12.2889C35.8371 13.1037 34.6667 14.2 32.4 15.5778V15.8C32.4 16.2889 32.6519 16.5333 33.1556 16.5333C33.6741 16.5333 34.2297 16.363 34.8223 16.0222C35.9778 15.3407 37.0593 14.563 38.0667 13.6889L38.6222 13.2222ZM34.7778 12.3556C34.4519 12.3556 34.0297 12.6296 33.5111 13.1778C33.0074 13.7259 32.6667 14.3481 32.4889 15.0444C33.2 14.6148 33.8 14.163 34.2889 13.6889C34.7778 13.2 35.0222 12.8593 35.0222 12.6667C35.0222 12.4593 34.9408 12.3556 34.7778 12.3556Z" fill="var(--ui-primary)"/>
        <path d="M47.6625 13.2889C44.5366 15.8963 42.6033 17.2 41.8625 17.2C41.4329 17.2 41.2181 17.0222 41.2181 16.6667C41.2181 16.3111 41.3736 15.8889 41.6848 15.4C42.0107 14.9111 42.3292 14.4815 42.6403 14.1111C42.9662 13.7259 43.1292 13.4963 43.1292 13.4222C43.1292 13.3481 43.107 13.3111 43.0625 13.3111C41.6847 14.2296 40.8625 14.7926 40.5959 15C40.344 15.2074 39.9218 15.5481 39.3292 16.0222C38.7514 16.4963 38.3736 16.7926 38.1959 16.9111C38.0181 17.0296 37.8255 17.0889 37.6181 17.0889C37.4107 17.0889 37.307 17 37.307 16.8222C37.307 16.6148 37.7218 15.963 38.5514 14.8667C39.3514 13.7704 39.7514 13.1556 39.7514 13.0222C39.7514 12.9926 39.7218 12.9778 39.6625 12.9778C39.6181 12.9778 38.981 13.4296 37.7514 14.3333L37.6625 14C38.7144 13.1556 39.4255 12.6148 39.7959 12.3778C40.1662 12.1407 40.4625 12.0222 40.6847 12.0222C40.9218 12.0222 41.0403 12.1333 41.0403 12.3556C41.0403 12.5037 40.6181 13.1111 39.7736 14.1778C38.944 15.2296 38.5292 15.8 38.5292 15.8889C38.5292 15.963 38.5514 16 38.5959 16C38.6551 16 39.4996 15.4074 41.1292 14.2222C42.7736 13.0222 43.7736 12.4222 44.1292 12.4222C44.2329 12.4222 44.3292 12.4667 44.4181 12.5556C44.5218 12.6296 44.5736 12.7037 44.5736 12.7778C44.5736 12.9556 44.181 13.5481 43.3959 14.5556C42.6107 15.5481 42.2181 16.1111 42.2181 16.2444C42.2181 16.3778 42.307 16.4444 42.4847 16.4444C42.6773 16.4444 43.0773 16.2444 43.6847 15.8444C44.7959 15.1185 45.8181 14.3704 46.7514 13.6L47.2403 13.2C47.344 13.1259 47.4403 13.0889 47.5292 13.0889C47.6181 13.0889 47.6625 13.1333 47.6625 13.2222V13.2889Z" fill="var(--ui-primary)"/>
        <path d="M52.1679 10.6667C52.1679 10.5333 52.0716 10.4667 51.879 10.4667C51.7012 10.4667 51.3383 10.6667 50.7901 11.0667C50.242 11.4519 49.7457 11.8444 49.3012 12.2444L48.6568 12.8222C48.6568 12.8519 48.7012 12.8667 48.7901 12.8667C48.9383 12.8667 49.0346 12.9852 49.079 13.2222C49.1235 13.4444 49.2049 13.5556 49.3235 13.5556C49.7086 13.5556 50.279 13.163 51.0346 12.3778C51.7901 11.5926 52.1679 11.0222 52.1679 10.6667ZM54.279 13.2222C54.3827 13.1481 54.479 13.1111 54.5679 13.1111C54.6568 13.1111 54.7012 13.163 54.7012 13.2667V13.3111C53.5309 14.3481 52.3605 15.237 51.1901 15.9778C50.3161 16.6296 49.6049 16.9556 49.0568 16.9556C48.5235 16.9556 48.1457 16.7556 47.9235 16.3556C47.7161 15.9556 47.6124 15.5407 47.6124 15.1111C47.6124 14.6667 47.6568 14.363 47.7457 14.2C47.8346 14.037 47.879 13.9407 47.879 13.9111C47.879 13.8667 47.8346 13.8444 47.7457 13.8444C47.6124 13.8444 47.1531 14.3556 46.3679 15.3778C45.5827 16.4 45.1457 16.9111 45.0568 16.9111C44.9679 16.9111 44.879 16.8889 44.7901 16.8444C44.7161 16.7852 44.679 16.7111 44.679 16.6222C44.679 16.5333 44.7827 16.3185 44.9901 15.9778C45.2124 15.637 45.9161 14.637 47.1012 12.9778C48.2864 11.3185 48.9012 10.4519 48.9457 10.3778C48.9901 10.2889 49.0124 10.2296 49.0124 10.2C49.0124 10.1704 48.9827 10.1556 48.9235 10.1556C48.879 10.1556 48.842 10.1704 48.8124 10.2C48.7827 10.2148 48.5605 10.363 48.1457 10.6444C47.2124 11.2815 46.5679 11.6 46.2124 11.6C45.8568 11.6 45.679 11.4593 45.679 11.1778C45.679 10.9407 45.7531 10.7333 45.9012 10.5556C46.0642 10.3778 46.242 10.2889 46.4346 10.2889C46.5235 10.2889 46.5975 10.3926 46.6568 10.6C46.7161 10.7926 46.8124 10.8889 46.9457 10.8889C47.079 10.8889 47.242 10.837 47.4346 10.7333C47.6272 10.6296 47.8198 10.5037 48.0124 10.3556C48.2198 10.2074 48.4494 10.0296 48.7012 9.82222C48.9679 9.6 49.1827 9.41481 49.3457 9.26667C49.8346 8.82222 50.1309 8.54815 50.2346 8.44445C50.5161 7.97037 51.5827 6.61482 53.4346 4.37778C53.6568 4.0963 53.8716 3.95556 54.079 3.95556C54.3012 3.95556 54.4124 4.00741 54.4124 4.11111C54.4124 4.21482 54.3753 4.31852 54.3012 4.42222C54.2272 4.51111 53.6716 5.22963 52.6346 6.57778C51.5975 7.91111 50.5531 9.28148 49.5012 10.6889C48.4494 12.0815 47.9235 12.8222 47.9235 12.9111C47.9235 13 47.9605 13.0444 48.0346 13.0444C48.2568 12.8074 48.5383 12.5185 48.879 12.1778C49.2346 11.8222 49.8346 11.3556 50.679 10.7778C51.5235 10.1852 52.1901 9.88889 52.679 9.88889C53.1827 9.88889 53.4346 10.0222 53.4346 10.2889C53.4346 10.7778 52.8642 11.5037 51.7235 12.4667C50.5827 13.4296 49.7901 13.9111 49.3457 13.9111L48.9235 13.8222C48.7901 13.8222 48.679 13.9407 48.5901 14.1778C48.5012 14.4 48.4568 14.6593 48.4568 14.9556C48.4568 15.8593 48.7975 16.3111 49.479 16.3111C49.8346 16.3111 50.2346 16.1704 50.679 15.8889C51.6272 15.3111 52.642 14.5704 53.7235 13.6667L54.279 13.2222Z" fill="var(--ui-primary)"/>
        <path d="M55.9981 15C56.8277 15 57.8203 14.5333 58.9759 13.6L59.3537 13.7111C57.9018 14.9259 56.65 15.5333 55.5981 15.5333C55.4796 15.5333 55.3907 15.5259 55.3314 15.5111C54.9314 16 54.4944 16.4 54.0203 16.7111C53.5463 17.0074 53.1315 17.1556 52.7759 17.1556C52.2129 17.1556 51.9315 16.8444 51.9315 16.2222C51.9315 15.5852 52.4574 14.7407 53.5092 13.6889C53.3315 13.2593 53.2426 12.8074 53.2426 12.3333C53.2426 11.8593 53.4129 11.4741 53.7537 11.1778C54.0944 10.8815 54.487 10.7333 54.9314 10.7333C55.3907 10.7333 55.7759 10.8815 56.087 11.1778C56.3981 11.4741 56.5537 11.8963 56.5537 12.4444C56.5537 13.2889 56.2796 14.1333 55.7314 14.9778C55.7907 14.9926 55.8796 15 55.9981 15ZM55.287 14.7778C55.7463 14.0074 55.9759 13.3556 55.9759 12.8222C55.9759 12.2741 55.8426 11.8741 55.5759 11.6222C55.3092 11.3556 55.05 11.2222 54.7981 11.2222C54.2796 11.2222 54.0203 11.4889 54.0203 12.0222C54.0203 12.5556 54.1389 13.0889 54.3759 13.6222C54.6129 14.1407 54.9166 14.5259 55.287 14.7778ZM52.8426 16.0889C52.8426 16.3852 53.0352 16.5333 53.4203 16.5333C53.8055 16.5333 54.2944 16.1407 54.887 15.3556C54.487 15.1481 54.1315 14.7852 53.8203 14.2667C53.1685 14.9778 52.8426 15.5852 52.8426 16.0889Z" fill="var(--ui-primary)"/>
    </g>
</svg>